<svg xmlns="http://www.w3.org/2000/svg" viewBox="0 0 2100 2100"><defs><style>.cls-1{fill:none;}.cls-2{fill:#b3e6ff;}.cls-3{fill:#333;}</style></defs><g id="background"><rect id="背景" class="cls-1" width="2100" height="2100"/></g><g id="illustration"><path class="cls-2" d="M1777.5,779.7v600.9a96.3,96.3,0,0,1-47.7,83l-583.64,338.7a95,95,0,0,1-95.09,0l-583.64-338.7a96.16,96.16,0,0,1-47.55-83V779.7a95.79,95.79,0,0,1,47.55-83l583.64-339a94.54,94.54,0,0,1,95.09,0l177.9,103.35,18.9,10.8,18.9,11.25,75.9,43.8,292,169.8A95.93,95.93,0,0,1,1777.5,779.7Z"/><path class="cls-3" d="M1659.29,643.47l-298.16-173-77.51-44.8-19.34-11.36-19.22-11.11L1063.72,298a97.08,97.08,0,0,0-97.1,0L371.05,643.47a97.54,97.54,0,0,0-48.55,84.37v612.3a98,98,0,0,0,48.55,84.49l595.57,345.21a98.07,98.07,0,0,0,97.1,0l595.57-345.21a98,98,0,0,0,48.55-84.49V727.84A97.54,97.54,0,0,0,1659.29,643.47ZM1245.68,448.65l107.09,62-626,372.54-12.85,7.62a20.12,20.12,0,0,0-9.74,17.22v220.16A10,10,0,0,1,689.3,1137L618,1096.14a19.72,19.72,0,0,1-10-17.35V846.28a20.11,20.11,0,0,1,9.49-17.1l7.74-4.74ZM390.52,677.17,986,332a59,59,0,0,1,58.41,0L1207,426.31,586.84,802.23,382,683.41A38.27,38.27,0,0,1,390.52,677.17ZM995.7,1740.51c-1-.37-1.87-.5-2.75-.87a53.9,53.9,0,0,1-7-3.62L390.52,1390.68a58.08,58.08,0,0,1-29.21-50.54V727.84a52.35,52.35,0,0,1,1.25-10.73l1,.62L569.11,836.92V1090.4a39.32,39.32,0,0,0,19.6,33.82l38.94,22.22,66.4,38.19a30.26,30.26,0,0,0,15.35,4,38.31,38.31,0,0,0,19-5.11c9.23-5.5,14.72-14.48,14.72-24.22V937.64L995.7,1084.16ZM765.43,905.69l625.78-372.55,248.61,144a38,38,0,0,1,8.48,6.24l-633.13,367.05ZM1669,1340.14a58.1,58.1,0,0,1-29.2,50.54L1044.37,1736a53.26,53.26,0,0,1-7,3.62c-.87.37-2.74.87-2.74.87V1084.16l632.14-366.43,1-.62a52.35,52.35,0,0,1,1.25,10.73Z"/></g></svg>