<svg xmlns="http://www.w3.org/2000/svg" viewBox="0 0 280.63 280.63"><defs><style>.cls-1{fill:#faf054;}.cls-2{fill:none;stroke:#3e3a39;stroke-linecap:round;stroke-linejoin:round;stroke-width:5.67px;}</style></defs><g id="illustration"><g id="frame_12"><path class="cls-1" d="M870.5,506.6c0,8.47-10.87,15.75-12.46,23.75-1.63,8.25,5.6,19.13,2.46,26.71s-16,10.29-20.63,17.14-2.12,19.75-8,25.61-18.69,3.35-25.6,8-9.43,17.42-17.15,20.62-18.46-4.08-26.7-2.45c-8,1.58-15.29,12.46-23.75,12.46S722.94,627.54,714.94,626c-8.24-1.63-19.12,5.6-26.71,2.45s-10.28-16-17.14-20.62-19.75-2.12-25.61-8-3.35-18.7-8-25.61-17.43-9.42-20.63-17.14,4.08-18.46,2.45-26.71c-1.58-8-12.45-15.28-12.45-23.75s10.87-15.74,12.45-23.74c1.63-8.25-5.59-19.13-2.45-26.71s16-10.29,20.63-17.14,2.11-19.75,8-25.61,18.7-3.35,25.61-8,9.43-17.42,17.14-20.62,18.47,4.08,26.71,2.45c8-1.58,15.29-12.46,23.75-12.46s15.75,10.88,23.75,12.46c8.24,1.63,19.12-5.6,26.7-2.45s10.29,16,17.15,20.62,19.74,2.12,25.6,8,3.35,18.7,8,25.61,17.43,9.42,20.63,17.14-4.09,18.46-2.46,26.71C859.63,490.86,870.5,498.14,870.5,506.6Z" transform="translate(-589.87 -357.79)"/><path class="cls-2" d="M856.33,492.43c0,8.47-10.88,15.75-12.46,23.75-1.63,8.24,5.6,19.12,2.45,26.71s-16,10.28-20.62,17.14-2.12,19.75-8,25.61-18.7,3.35-25.61,8S782.69,611,775,614.24s-18.46-4.08-26.71-2.45c-8,1.58-15.28,12.45-23.74,12.45s-15.75-10.87-23.75-12.45c-8.25-1.63-19.13,5.59-26.71,2.45s-10.29-16-17.14-20.63-19.75-2.11-25.61-8-3.35-18.7-8-25.61-17.42-9.43-20.62-17.14,4.08-18.47,2.45-26.71c-1.58-8-12.46-15.28-12.46-23.75s10.88-15.75,12.46-23.75c1.63-8.24-5.6-19.12-2.45-26.7s16-10.29,20.62-17.15,2.12-19.74,8-25.6,18.7-3.35,25.61-8,9.42-17.43,17.14-20.63,18.46,4.09,26.71,2.46c8-1.59,15.28-12.46,23.75-12.46s15.75,10.87,23.74,12.46c8.25,1.63,19.13-5.6,26.71-2.46s10.29,16,17.14,20.63,19.75,2.12,25.61,8,3.35,18.69,8,25.6,17.42,9.43,20.62,17.15-4.08,18.46-2.45,26.7C845.45,476.68,856.33,484,856.33,492.43Z" transform="translate(-589.87 -357.79)"/></g></g></svg>