<svg id="レイヤー_1" data-name="レイヤー 1" xmlns="http://www.w3.org/2000/svg" viewBox="0 0 297.73 46.85"><defs><style>.cls-1{fill:#fff;}.cls-2{fill:#0081cc;}</style></defs><path class="cls-1" d="M334.55,375.44h3.55a22,22,0,0,0,3-.16v3.55a24.15,24.15,0,0,0-3-.16h-2.61a17.64,17.64,0,0,0,6.43,6.22,12.17,12.17,0,0,0-1.92,3.45,19.25,19.25,0,0,1-5.55-6.54c.05.88.08,1.78.08,2.5V387a22.39,22.39,0,0,0,.18,3.21h-3.63a27.25,27.25,0,0,0,.16-3.21v-2.42c0-.75,0-1.61.08-2.65a18.53,18.53,0,0,1-6,6.46,12.82,12.82,0,0,0-1.93-3.09,17.35,17.35,0,0,0,4-3,18.13,18.13,0,0,0,2.81-3.61h-1.61a20.69,20.69,0,0,0-3,.19v-1.63a17,17,0,0,0-1,3.1,12.41,12.41,0,0,1-1.45-2.89c.06.8.08,2.06.08,3.15v6.22a30.48,30.48,0,0,0,.16,3.37H319.7a28.54,28.54,0,0,0,.16-3.37v-4.72c0-.62.06-1.76.14-3a17.35,17.35,0,0,1-2.49,5.34,14.2,14.2,0,0,0-1.25-3.71,21.62,21.62,0,0,0,3.31-7.61h-.86a8.18,8.18,0,0,0-1.76.13v-3.39a7.38,7.38,0,0,0,1.76.14h1.13v-2a17.32,17.32,0,0,0-.17-2.81h3.66a20,20,0,0,0-.16,2.78v2h.59a6.46,6.46,0,0,0,1.34-.11v2.38a17.49,17.49,0,0,0,1.84-6.2l3.18.8c-.11.32-.19.67-.4,1.52-.11.43-.14.56-.24,1h1.73v-1.5a16.7,16.7,0,0,0-.16-2.61h3.66a16.42,16.42,0,0,0-.16,2.59v1.52h2.8a22.6,22.6,0,0,0,3-.16v3.52a24.43,24.43,0,0,0-3-.16h-2.78Zm-6.14-2.86a16.46,16.46,0,0,1-1.34,2.73,11.24,11.24,0,0,0-2.48-2.19c-.38,0-.54,0-.78,0h-.5a13.49,13.49,0,0,0,2.24,3.79v-1.63a15.16,15.16,0,0,0,3,.19h2.62v-2.86Z" transform="translate(-260.56 -354.23)"/><path class="cls-1" d="M365.1,369.59a16.2,16.2,0,0,0,2.59-.13v3.47a26.14,26.14,0,0,0-3.28-.16h-3.53c.27,4.41.77,7.32,1.71,9.61.64,1.52,1.65,3.15,2,3.15s.58-1.55.88-4a12.43,12.43,0,0,0,2.88,1.74,12.87,12.87,0,0,1-1.52,5.26,2.51,2.51,0,0,1-2.06,1.31,4.79,4.79,0,0,1-3.18-2,18.22,18.22,0,0,1-2.64-5.28,39.91,39.91,0,0,1-1.52-9.75H347a30.86,30.86,0,0,0-3.29.16v-3.5a26.86,26.86,0,0,0,3.29.16h10.31c0-1.15,0-1.15-.06-2.11,0-.67-.08-1.44-.13-1.92h3.76a14.35,14.35,0,0,0-.1,1.9c0,.18,0,.18,0,2.13h3.31a16.16,16.16,0,0,0-2.67-2.43l2.49-1.63a23.51,23.51,0,0,1,2.93,2.59l-2.13,1.47Zm-17.68,9.19c-1,0-2,.05-2.8.1V375.6a25.81,25.81,0,0,0,2.88.13h6.25a25.8,25.8,0,0,0,2.86-.13v3.28c-.83-.08-1.79-.1-2.81-.1h-1.49v5.55c1.87-.35,2.88-.59,5.26-1.17v3.23c-4.94,1.17-8.17,1.81-11.59,2.32a15.87,15.87,0,0,0-1.76.29l-.54-3.57a40.88,40.88,0,0,0,5.18-.54v-6.11Z" transform="translate(-260.56 -354.23)"/><path class="cls-1" d="M375.49,374.37a27.35,27.35,0,0,1-4,2.08,11.5,11.5,0,0,0-1.76-3.31,22.6,22.6,0,0,0,6.43-3.36,16.66,16.66,0,0,0,4.35-4.41h3.72a16,16,0,0,0,4.51,4.3,25.72,25.72,0,0,0,6.62,3.29,16,16,0,0,0-1.66,3.57,24.41,24.41,0,0,1-4.27-2.19v1.82a22,22,0,0,0-2.48-.11h-9.05a22.63,22.63,0,0,0-2.38.11Zm-1.39,6.76a25,25,0,0,0-3.18.16v-3.55c.91.08,2,.13,3.18.13h16.74c1.29,0,2.3-.05,3.18-.13v3.55a25.15,25.15,0,0,0-3.18-.16h-9a31.56,31.56,0,0,1-2.57,4.72c5.37-.26,5.37-.26,7.64-.53-.85-1-1.28-1.44-2.56-2.78l3.2-1.33a56.11,56.11,0,0,1,6.06,7.13l-3.12,2c-.75-1.17-1-1.52-1.42-2.16-2.56.35-2.61.35-4.08.48-1.31.13-9.13.83-10.15.88-1.23.08-2.32.22-2.93.32l-.46-3.82c.8.06,1.2.06,1.87.06.27,0,.91,0,1.9,0a33.56,33.56,0,0,0,2.61-4.91Zm13-8.25a21,21,0,0,1-4.72-4.44,20.64,20.64,0,0,1-4.7,4.44Z" transform="translate(-260.56 -354.23)"/><path class="cls-1" d="M404,387.35a18.82,18.82,0,0,0,.13,2.78h-3.74a19.55,19.55,0,0,0,.16-2.86v-6.14a17.36,17.36,0,0,1-2.69,2,12.92,12.92,0,0,0-1.53-3.28,18.13,18.13,0,0,0,4.41-3.34,13.91,13.91,0,0,0,2.8-3.92h-4a18.18,18.18,0,0,0-2.29.1v-3.44a15.17,15.17,0,0,0,2.08.1h1.28v-2.1a12.1,12.1,0,0,0-.16-2h3.71a10.71,10.71,0,0,0-.16,2.05v2.08H405a9.31,9.31,0,0,0,1.55-.08l1.49,1.61a11.2,11.2,0,0,0-.61,1.2,21.81,21.81,0,0,1-2.54,4.43,14.44,14.44,0,0,0,4.24,3.34,16.87,16.87,0,0,0-1.7,3.18,13.62,13.62,0,0,1-3.34-2.86Zm11.56-1.55h2.67a27.56,27.56,0,0,0,3.15-.13v3.66a29.64,29.64,0,0,0-3.12-.16h-8.95a27.48,27.48,0,0,0-3,.16v-3.66a28.17,28.17,0,0,0,3.1.13H412V375.73h-1.71c-.88,0-1.74.06-2.62.14v-3.61a23.07,23.07,0,0,0,2.62.14H412v-4.2a25,25,0,0,0-.17-3h3.93a20.72,20.72,0,0,0-.16,3v4.2h2.46a16.94,16.94,0,0,0,2.64-.14v3.61c-.91-.08-1.71-.14-2.64-.14H415.6Z" transform="translate(-260.56 -354.23)"/><path class="cls-1" d="M451.52,382.89a28.81,28.81,0,0,0,4.24-.19v4a29.71,29.71,0,0,0-4.19-.14H436.38a38.77,38.77,0,0,0-4,.14v-4a26.76,26.76,0,0,0,4,.19h8.65a89.77,89.77,0,0,0,1.55-10.49H439.4a30.11,30.11,0,0,0-3.77.16v-4a22.33,22.33,0,0,0,3.74.21H447a6.84,6.84,0,0,0,2.54-.29l2,1.63a6,6,0,0,0-.61,2.27c-.62,4.78-1,7-1.55,10.52Z" transform="translate(-260.56 -354.23)"/><path class="cls-1" d="M469.09,366.25a12,12,0,0,0-.69,1.37c-.24.48-.32.66-.59,1.14l7.05-.05a4.72,4.72,0,0,0,2-.35l2.09,2.06c-.38.43-.4.48-.86,1.82-1.76,5.15-3.82,8.75-6.65,11.69a28.9,28.9,0,0,1-9.05,6.14,11.41,11.41,0,0,0-2.64-3.36,30,30,0,0,0,5.1-2.49,19,19,0,0,0,4.22-3.47,29.42,29.42,0,0,0-5.24-3.57l2.43-2.86a36.2,36.2,0,0,1,5.13,3.31,22.11,22.11,0,0,0,2.62-5.55l-7.83.08a29.05,29.05,0,0,1-6.17,7.15,10,10,0,0,0-3.23-2.54,23.3,23.3,0,0,0,6.68-7.66,15.86,15.86,0,0,0,1.55-3.74Z" transform="translate(-260.56 -354.23)"/><path class="cls-1" d="M490.06,370.77c.08-1.15.13-2.54.13-3.8a9,9,0,0,0-.05-1.12l4.24.11a23.9,23.9,0,0,0-.24,3.2c0,.56-.05.72-.1,1.58h5.87a4.93,4.93,0,0,0,1.95-.27l1.79,1.58a3.74,3.74,0,0,0-.32,1.84c-.16,5.5-.62,10.2-1.23,12-.72,2.19-1.9,3-4.59,3a20.38,20.38,0,0,1-3.37-.29,9.48,9.48,0,0,0-.77-4,13.67,13.67,0,0,0,3.5.58c1.25,0,1.6-.53,2-3.09a61.4,61.4,0,0,0,.51-7.78l-5.69,0a18.34,18.34,0,0,1-9.43,15,13.07,13.07,0,0,0-2.91-3.4c3.47-1.81,5.58-3.84,6.94-6.59a13.47,13.47,0,0,0,1.29-4.27l.13-.78h-3.47a16.93,16.93,0,0,0-3.66.16l0-3.9a18,18,0,0,0,3.74.22Z" transform="translate(-260.56 -354.23)"/><path class="cls-1" d="M513.91,382.25c-.38.51-.59.8-1.18,1.49a18,18,0,0,0-1.52-1.94c-.51,3.84-1.23,6.22-2.59,8.38a16.14,16.14,0,0,0-2.54-3.26,12.44,12.44,0,0,0,1.47-3.71,38.63,38.63,0,0,0,.72-8.44c0-1.17,0-2-.11-3,1.1.1,1.9.13,3,.13h2.65a11.55,11.55,0,0,0-.81-2h-2.16a23.07,23.07,0,0,0-2.78.1v-3.26a21.19,21.19,0,0,0,3.05.16h6.27a8.4,8.4,0,0,0-.13-1.73h3.87A8.64,8.64,0,0,0,521,367h6.3a22.67,22.67,0,0,0,3.13-.16v3.26a25.69,25.69,0,0,0-2.89-.1h-1.81c-.59,1.22-.64,1.36-1,2H528a22.19,22.19,0,0,0,2.92-.13V375a23.36,23.36,0,0,0-2.92-.13H511.58a47.7,47.7,0,0,1-.18,5.37,15.21,15.21,0,0,0,2.75-5.26l3.09.9c-.24.54-.24.54-.48,1.12h2.54a7.84,7.84,0,0,0-.13-1.6h3.55a9.73,9.73,0,0,0-.11,1.6h4.62a14.23,14.23,0,0,0,2.51-.13v3.18a22.12,22.12,0,0,0-2.54-.08h-4.59v1.65h3.87a16.93,16.93,0,0,0,2.38-.1v3.07a20.21,20.21,0,0,0-2.38-.08h-3.87v1.79h5.69a21.36,21.36,0,0,0,2.53-.14v3.32a25.55,25.55,0,0,0-2.61-.14H513.56a22.62,22.62,0,0,0-2.62.14V386.2a21.54,21.54,0,0,0,2.54.11h5.82v-1.79h-2.94c-1,0-1.63,0-2.45.08Zm1.46-2.27a15.73,15.73,0,0,1-1,1.6c.51.05,1,.05,2,.05h3V380Zm5.72-8a12.59,12.59,0,0,0,.88-2h-5.21a19.71,19.71,0,0,1,.78,2Z" transform="translate(-260.56 -354.23)"/><path class="cls-1" d="M537.14,376.13a25,25,0,0,0-2.64.11v-2.83a22.77,22.77,0,0,0,2.64.11h2.94a13.85,13.85,0,0,0-.8-1.58h-2.65c-1.28,0-2.37.06-3.2.14V369a24.38,24.38,0,0,0,3,.16h.4a10.64,10.64,0,0,0-1.63-2.33l3.21-1.14a17.32,17.32,0,0,1,1.89,3.47h1.18v-1.82a14.09,14.09,0,0,0-.13-2h3.41a17.65,17.65,0,0,0-.08,1.87v2h1.58v-2a11.93,11.93,0,0,0-.11-1.87h3.45a13.09,13.09,0,0,0-.14,2v1.82h1.26a14.62,14.62,0,0,0,1.81-3.53l3.24,1.15a22.18,22.18,0,0,1-1.5,2.38h.37a23.88,23.88,0,0,0,3.07-.16v3.1c-.82-.08-1.94-.14-3.25-.14H552c-.48,1-.51,1.07-.77,1.58H554a23.36,23.36,0,0,0,2.67-.11v2.83a25.51,25.51,0,0,0-2.67-.11H547.1v1.05h5.69a18.27,18.27,0,0,0,2.67-.14v2.7a24.77,24.77,0,0,0-2.67-.11H547.1v1h7.26a26.16,26.16,0,0,0,3.31-.16v3a29.76,29.76,0,0,0-3.28-.16h-4.83c2.05,1.6,4.83,2.64,8.73,3.28a12.48,12.48,0,0,0-1.76,3.21c-4.22-1.15-7.19-2.73-9.51-5.05.05.91.05,1,.05,1.71v1.09a19.06,19.06,0,0,0,.16,2.67h-3.57a20.82,20.82,0,0,0,.16-2.67v-1.07c0-.64,0-.72,0-1.68a15.58,15.58,0,0,1-3.79,2.83,25,25,0,0,1-5.21,2.17,11.55,11.55,0,0,0-1.87-3.08,19.09,19.09,0,0,0,8.39-3.41H537a30.08,30.08,0,0,0-3.33.16v-3a27.32,27.32,0,0,0,3.31.16h6.86v-1h-5.37a24.77,24.77,0,0,0-2.67.11V377a17.45,17.45,0,0,0,2.67.14h5.37v-1.05Zm10.52-2.61a14.58,14.58,0,0,0,.7-1.58h-5.45c.26.62.4.91.64,1.58Z" transform="translate(-260.56 -354.23)"/><rect class="cls-1" width="50" height="46.85"/><path class="cls-2" d="M272.22,374.05v-3.32l-1.54-4.53h1.19l.9,3.12h0l.9-3.12h1.19l-1.54,4.53v3.32Z" transform="translate(-260.56 -354.23)"/><path class="cls-2" d="M279.75,366.2v6.09a1.67,1.67,0,0,1-.14.71,1.82,1.82,0,0,1-1,1,1.71,1.71,0,0,1-.71.15,1.66,1.66,0,0,1-.7-.15,1.85,1.85,0,0,1-.58-.39,1.74,1.74,0,0,1-.39-.58,1.67,1.67,0,0,1-.15-.71V366.2h1.13v6a.83.83,0,0,0,.2.62.66.66,0,0,0,.49.19.68.68,0,0,0,.5-.19.87.87,0,0,0,.2-.62v-6Z" transform="translate(-260.56 -354.23)"/><path class="cls-2" d="M282.21,374.05v-6.79h-1.3V366.2h3.72v1.06h-1.3v6.79Z" transform="translate(-260.56 -354.23)"/><path class="cls-2" d="M285.28,374.05,287,366.2H288l1.76,7.85H288.6l-.33-1.68h-1.53l-.33,1.68Zm2.78-2.74-.55-2.85h0l-.55,2.85Z" transform="translate(-260.56 -354.23)"/><path class="cls-2" d="M290.94,374.05V366.2h1.13v3.59h0l1.64-3.59h1.12l-1.53,3.15,1.82,4.7H294l-1.28-3.48-.6,1.13v2.35Z" transform="translate(-260.56 -354.23)"/><path class="cls-2" d="M295.79,374.05l1.75-7.85h.94l1.75,7.85h-1.12l-.33-1.68h-1.53l-.34,1.68Zm2.78-2.74-.55-2.85h0l-.55,2.85Z" transform="translate(-260.56 -354.23)"/><path class="cls-2" d="M268.28,389.67v-7.84h1.13v7.84Z" transform="translate(-260.56 -354.23)"/><path class="cls-2" d="M271.42,389.67v-5.58h1.13v.54h0a1.77,1.77,0,0,1,.42-.44,1.15,1.15,0,0,1,.64-.17,1.23,1.23,0,0,1,.42.07,1,1,0,0,1,.37.24,1.27,1.27,0,0,1,.27.42,2,2,0,0,1,.1.64v4.28h-1.13v-3.86a.79.79,0,0,0-.14-.49.5.5,0,0,0-.41-.18.48.48,0,0,0-.44.2,1.17,1.17,0,0,0-.12.58v3.75Z" transform="translate(-260.56 -354.23)"/><path class="cls-2" d="M278.94,389.67v-.5l-.21.22a1.37,1.37,0,0,1-.22.19,1,1,0,0,1-.28.12,1.28,1.28,0,0,1-.36,0,1,1,0,0,1-1-.53,1.39,1.39,0,0,1-.14-.46,4.76,4.76,0,0,1-.05-.74v-2.13a6.52,6.52,0,0,1,0-.89,1.06,1.06,0,0,1,.51-.83,1.18,1.18,0,0,1,.63-.14,1.15,1.15,0,0,1,.59.15,1.49,1.49,0,0,1,.45.42h0v-2.76h1.12v7.84Zm-1.11-1.81a1,1,0,0,0,.13.55.46.46,0,0,0,.42.21.51.51,0,0,0,.41-.2.78.78,0,0,0,.15-.5v-2.17a.57.57,0,0,0-.16-.43.52.52,0,0,0-.4-.18.47.47,0,0,0-.44.2,1,1,0,0,0-.11.47Z" transform="translate(-260.56 -354.23)"/><path class="cls-2" d="M285.34,384.09v5.58h-1.12v-.54h0a1.51,1.51,0,0,1-.43.44,1.09,1.09,0,0,1-.63.17,1.23,1.23,0,0,1-.42-.07,1,1,0,0,1-.37-.24,1.27,1.27,0,0,1-.27-.42,2,2,0,0,1-.1-.64v-4.28h1.13V388a.78.78,0,0,0,.14.48.5.5,0,0,0,.41.18.48.48,0,0,0,.44-.2,1.14,1.14,0,0,0,.12-.58v-3.75Z" transform="translate(-260.56 -354.23)"/><path class="cls-2" d="M289.3,385.65a.59.59,0,0,0-.18-.43.62.62,0,0,0-.39-.14.52.52,0,0,0-.41.17.55.55,0,0,0-.14.39.66.66,0,0,0,.07.3.77.77,0,0,0,.4.27l.66.27a1.61,1.61,0,0,1,.87.66,1.79,1.79,0,0,1,.24.91,1.76,1.76,0,0,1-.13.66,1.93,1.93,0,0,1-.35.54,1.66,1.66,0,0,1-.53.36,1.63,1.63,0,0,1-.67.13,1.61,1.61,0,0,1-1.15-.43,1.53,1.53,0,0,1-.37-.52,1.87,1.87,0,0,1-.16-.74h1.06a1.06,1.06,0,0,0,.16.43.49.49,0,0,0,.45.2.62.62,0,0,0,.43-.16.53.53,0,0,0,.2-.44.65.65,0,0,0-.12-.4,1,1,0,0,0-.45-.29l-.54-.2a1.76,1.76,0,0,1-.83-.59,1.5,1.5,0,0,1-.3-1,1.57,1.57,0,0,1,.13-.65,1.54,1.54,0,0,1,.37-.53,1.25,1.25,0,0,1,.51-.33,1.77,1.77,0,0,1,1.28,0,1.49,1.49,0,0,1,.83.87,1.69,1.69,0,0,1,.12.64Z" transform="translate(-260.56 -354.23)"/><path class="cls-2" d="M292.13,384.09v-1.7h1.13v1.7H294V385h-.69v3.1a.8.8,0,0,0,0,.3.27.27,0,0,0,.12.17.48.48,0,0,0,.22.07H294v1.05h-.46a1.49,1.49,0,0,1-.64-.12,1.13,1.13,0,0,1-.42-.3,1.17,1.17,0,0,1-.22-.43,1.54,1.54,0,0,1-.08-.46V385h-.56v-.88Z" transform="translate(-260.56 -354.23)"/><path class="cls-2" d="M295.38,389.67v-5.58h1.12v.59a3.37,3.37,0,0,1,.67-.48A1.69,1.69,0,0,1,298,384v1.19a1,1,0,0,0-.34-.07,1.06,1.06,0,0,0-.38.07.89.89,0,0,0-.37.2,1,1,0,0,0-.29.37,1.43,1.43,0,0,0-.11.58v3.31Z" transform="translate(-260.56 -354.23)"/><path class="cls-2" d="M299,384.09h1.19l.77,3.48h0l.76-3.48h1.16l-1.61,6.55a1.87,1.87,0,0,1-.25.62,1.42,1.42,0,0,1-.37.4,1.37,1.37,0,0,1-.44.21,2,2,0,0,1-.49.06h-.31v-1.05h.25a.84.84,0,0,0,.29-.05.45.45,0,0,0,.22-.2,1.7,1.7,0,0,0,.16-.43q.07-.29.18-.78Z" transform="translate(-260.56 -354.23)"/></svg>